<svg width="24" height="24" viewBox="0 0 24 24" fill="none" xmlns="http://www.w3.org/2000/svg">
<rect width="24" height="24" rx="12" fill="white"/>
<path d="M12 5.5C12.1326 5.5 12.2598 5.55268 12.3536 5.64645C12.4473 5.74021 12.5 5.86739 12.5 6V11.5H18C18.1326 11.5 18.2598 11.5527 18.3536 11.6464C18.4473 11.7402 18.5 11.8674 18.5 12C18.5 12.1326 18.4473 12.2598 18.3536 12.3536C18.2598 12.4473 18.1326 12.5 18 12.5H12.5V18C12.5 18.1326 12.4473 18.2598 12.3536 18.3536C12.2598 18.4473 12.1326 18.5 12 18.5C11.8674 18.5 11.7402 18.4473 11.6464 18.3536C11.5527 18.2598 11.5 18.1326 11.5 18V12.5H6C5.86739 12.5 5.74021 12.4473 5.64645 12.3536C5.55268 12.2598 5.5 12.1326 5.5 12C5.5 11.8674 5.55268 11.7402 5.64645 11.6464C5.74021 11.5527 5.86739 11.5 6 11.5H11.5V6C11.5 5.86739 11.5527 5.74021 11.6464 5.64645C11.7402 5.55268 11.8674 5.5 12 5.5Z" fill="#73889D"/>
</svg>
